<svg width="24" height="24" viewBox="0 0 24 24" fill="none" xmlns="http://www.w3.org/2000/svg">
<path d="M14.5 13.4999C14.7762 13.2238 15.2239 13.2238 15.5 13.4999C15.7762 13.7761 15.7762 14.2238 15.5 14.4999L12.7071 17.2929C12.3165 17.6833 11.6835 17.6834 11.293 17.2929L8.50004 14.4999C8.22397 14.2238 8.22392 13.776 8.50004 13.4999C8.77616 13.2238 9.22389 13.2238 9.50004 13.4999L12 15.9999L14.5 13.4999ZM14.5 7.49992C14.7762 7.2238 15.2239 7.22385 15.5 7.49992C15.7762 7.77606 15.7762 8.22377 15.5 8.49992L12.7071 11.2929C12.3165 11.6833 11.6835 11.6834 11.293 11.2929L8.50004 8.49992C8.22397 8.22377 8.22392 7.77603 8.50004 7.49992C8.77616 7.2238 9.22389 7.22385 9.50004 7.49992L12 9.99992L14.5 7.49992Z" fill="#41F6D7"/>
</svg>
